<?xml version="1.0" standalone="no"?><!DOCTYPE svg PUBLIC "-//W3C//DTD SVG 1.1//EN" "http://www.w3.org/Graphics/SVG/1.1/DTD/svg11.dtd"><svg t="1773923748724" class="icon" viewBox="0 0 1024 1024" version="1.1" xmlns="http://www.w3.org/2000/svg" p-id="5930" xmlns:xlink="http://www.w3.org/1999/xlink" width="200" height="200"><path d="M512 212l48.8 12c101.6 24.8 176 117.6 176 220.8v254.4l18.4 18.4 24.8 25.6h-536l24.8-25.6 18.4-18.4V444.8c0-103.2 73.6-196.8 176-220.8l48.8-12M512 64c-36.8 0-64 30.4-64 68v30.4C320.8 192 223.2 307.2 223.2 444.8v228.8L136 763.2v44.8h752v-44.8l-87.2-89.6V444.8c0-137.6-97.6-252.8-224.8-283.2v-28.8c0-32-17.6-60.8-48-67.2-5.6-1.6-11.2-1.6-16-1.6z m88 808H424c0 49.6 38.4 88 88 88s88-38.4 88-88z" p-id="5931"></path></svg>