<?xml version="1.0" standalone="no"?><!DOCTYPE svg PUBLIC "-//W3C//DTD SVG 1.1//EN" "http://www.w3.org/Graphics/SVG/1.1/DTD/svg11.dtd"><svg t="1746590936918" class="icon" viewBox="0 0 1194 1024" version="1.1" xmlns="http://www.w3.org/2000/svg" p-id="5378" xmlns:xlink="http://www.w3.org/1999/xlink" width="233.203125" height="200"><path d="M1151.9144 325.11999969V89.12a57.04000031 57.04000031 0 0 0-28.8-49.44 58.15999969 58.15999969 0 0 0-57.76000031 0 57.04000031 57.04000031 0 0 0-28.8 49.44v235.99999969c0.24 84.31999969-33.6 152.56000031-94.08 212.00000062-60.07999969 59.83999969-141.84 80.64-227.04 80.4H225.91440031L388.07439969 457.11999969a56.80000031 56.80000031 0 0 0 12.40000031-62.16 57.76000031 57.76000031 0 0 0-94.00000031-18.63999938L48.8744 631.20000031a56.88 56.88 0 0 0 0 80.79999938l264.96 262.56a58.08 58.08 0 0 0 96.55999969-25.59999938 56.80000031 56.80000031 0 0 0-14.95999969-55.2L232.07439969 731.67999969h483.44000062c116.56000031 0 226.15999969-32.08000031 308.64-113.76 82.15999969-80.80000031 128.23999969-178.15999969 127.83999938-292.87999969" p-id="5379"></path></svg>