<?xml version="1.0" standalone="no"?><!DOCTYPE svg PUBLIC "-//W3C//DTD SVG 1.1//EN" "http://www.w3.org/Graphics/SVG/1.1/DTD/svg11.dtd"><svg t="1746760911144" class="icon" viewBox="0 0 1024 1024" version="1.1" xmlns="http://www.w3.org/2000/svg" p-id="12537" xmlns:xlink="http://www.w3.org/1999/xlink" width="200" height="200"><path d="M395.21211 182.914448c0 62.669318 49.541323 113.472378 110.642936 113.472378 61.093427 0 110.652146-50.80306 110.65214601-113.472378 0-62.685691-49.559742-113.487727-110.65214601-113.487727C444.75241 69.426721 395.21211 120.22978 395.21211 182.914448zM395.21211 523.34693101c0 62.668295 49.541323 113.487727 110.642936 113.48772699 61.093427 0 110.652146-50.820456 110.652146-113.487727 0-62.669318-49.559742-113.472378-110.652146-113.472378C444.75241 409.874553 395.21211 460.67761301 395.21211 523.34693101zM395.21211 841.084529c0 62.686714 49.541323 113.488751 110.642936 113.488751 61.093427 0 110.652146-50.80203599 110.65214601-113.488751 0-62.669318-49.559742-113.471354-110.65214601-113.471354C444.75241 727.614198 395.21211 778.416234 395.21211 841.084529z" p-id="12538"></path></svg>