<?xml version="1.0" standalone="no"?><!DOCTYPE svg PUBLIC "-//W3C//DTD SVG 1.1//EN" "http://www.w3.org/Graphics/SVG/1.1/DTD/svg11.dtd"><svg t="1777444212221" class="icon" viewBox="0 0 1024 1024" version="1.1" xmlns="http://www.w3.org/2000/svg" p-id="19349" xmlns:xlink="http://www.w3.org/1999/xlink" width="200" height="200"><path d="M896 752H702.4l152 152c12.8 12.8 12.8 33.6 0 46.4-12.8 12.8-33.6 12.8-46.4 0L611.2 752H412.8L216 950.4c-12.8 12.8-33.6 12.8-46.4 0-12.8-12.8-12.8-33.6 0-46.4l152-152H128c-35.2 0-64-28.8-64-64V240c0-35.2 28.8-64 64-64h768c35.2 0 64 28.8 64 64v448c0 35.2-28.8 64-64 64z m0-496c0-9.6-6.4-16-16-16H144c-9.6 0-16 6.4-16 16v416c0 9.6 6.4 16 16 16h736c9.6 0 16-6.4 16-16V256zM633.6 531.2c-3.2 4.8-8 8-14.4 11.2-3.2 1.6-6.4 1.6-9.6 1.6h-4.8c-6.4 0-11.2-3.2-16-6.4l-166.4-97.6-94.4 94.4c-12.8 12.8-32 12.8-44.8 0-12.8-12.8-12.8-32 0-44.8l113.6-113.6c1.6-1.6 1.6-1.6 3.2-1.6 0 0 1.6 0 1.6-1.6 11.2-8 24-8 35.2 0l169.6 97.6 94.4-94.4c12.8-12.8 32-12.8 44.8 0 12.8 12.8 12.8 32 0 44.8l-112 110.4zM784 128H240c-17.6 0-32-14.4-32-32s14.4-32 32-32h544c17.6 0 32 14.4 32 32s-14.4 32-32 32z" p-id="19350"></path></svg>