<?xml version="1.0" standalone="no"?><!DOCTYPE svg PUBLIC "-//W3C//DTD SVG 1.1//EN" "http://www.w3.org/Graphics/SVG/1.1/DTD/svg11.dtd"><svg t="1656035183065" class="icon" viewBox="0 0 1024 1024" version="1.1" xmlns="http://www.w3.org/2000/svg" p-id="3395" xmlns:xlink="http://www.w3.org/1999/xlink" width="200" height="200"><defs><style type="text/css">@font-face { font-family: feedback-iconfont; src: url("//at.alicdn.com/t/font_1031158_u69w8yhxdu.woff2?t=1630033759944") format("woff2"), url("//at.alicdn.com/t/font_1031158_u69w8yhxdu.woff?t=1630033759944") format("woff"), url("//at.alicdn.com/t/font_1031158_u69w8yhxdu.ttf?t=1630033759944") format("truetype"); }
</style></defs><path d="M958.88 730.06H65.12c-18.28 0-33.12-14.82-33.12-33.12V68.91c0-18.29 14.83-33.12 33.12-33.12h893.77c18.28 0 33.12 14.82 33.12 33.12v628.03c-0.01 18.3-14.84 33.12-33.13 33.12zM98.23 663.83h827.53v-561.8H98.23v561.8z" p-id="3396"></path><path d="M512 954.55c-18.28 0-33.12-14.82-33.12-33.12V733.92c0-18.29 14.83-33.12 33.12-33.12s33.12 14.82 33.12 33.12v187.51c0 18.3-14.84 33.12-33.12 33.12z" p-id="3397"></path><path d="M762.01 988.21H261.99c-18.28 0-33.12-14.82-33.12-33.12 0-18.29 14.83-33.12 33.12-33.12h500.03c18.28 0 33.12 14.82 33.12 33.12-0.01 18.29-14.84 33.12-33.13 33.12zM514.74 578.55c-21.63 0-43.31-3.87-64.21-11.65-45.95-17.13-82.49-51.13-102.86-95.74-5.07-11.08-0.19-24.19 10.89-29.26 11.08-5.09 24.19-0.18 29.26 10.91 15.5 33.88 43.25 59.7 78.14 72.71 34.93 12.99 72.79 11.64 106.66-3.85 33.22-15.17 58.8-42.26 72.03-76.3 4.42-11.37 17.21-17.01 28.57-12.58 11.36 4.42 16.99 17.22 12.57 28.58-17.42 44.82-51.1 80.5-94.82 100.47-24.34 11.12-50.25 16.71-76.23 16.71z" p-id="3398"></path><path d="M325.27 528.78c-1.66 0-3.34-0.18-5.02-0.57-11.88-2.77-19.28-14.63-16.49-26.51l18.84-81c1.34-5.82 5-10.84 10.13-13.92 5.09-3.09 11.3-3.96 17.03-2.41l80.51 21.43c11.79 3.14 18.8 15.23 15.67 27.02-3.15 11.79-15.42 18.75-27.02 15.65l-58.49-15.57-13.69 58.81c-2.37 10.2-11.45 17.07-21.47 17.07zM360.8 351.01c-2.65 0-5.37-0.49-8-1.51-11.36-4.41-16.99-17.21-12.59-28.57 17.4-44.79 51.06-80.47 94.8-100.48 92.15-42.06 201.25-1.39 243.31 90.68 5.07 11.08 0.19 24.19-10.89 29.26-11.13 5.07-24.19 0.17-29.26-10.91-31.97-69.91-114.9-100.82-184.79-68.86-33.22 15.19-58.8 42.28-71.99 76.29-3.41 8.74-11.75 14.1-20.59 14.1z" p-id="3399"></path><path d="M684.68 376.74c-1.47 0-2.95-0.15-4.42-0.44l-81.61-16.68c-11.94-2.45-19.64-14.11-17.21-26.06 2.44-11.96 14.1-19.64 26.04-17.22l59.29 12.12 10.23-59.5c2.05-12 13.52-20.19 25.48-18.01 12.03 2.06 20.09 13.48 18.02 25.5l-14.08 81.96a22.089 22.089 0 0 1-9.29 14.49c-3.7 2.51-8.03 3.84-12.45 3.84z" p-id="3400"></path></svg>