<?xml version="1.0" standalone="no"?><!DOCTYPE svg PUBLIC "-//W3C//DTD SVG 1.1//EN" "http://www.w3.org/Graphics/SVG/1.1/DTD/svg11.dtd"><svg t="1733303115132" class="icon" viewBox="0 0 1024 1024" version="1.1" xmlns="http://www.w3.org/2000/svg" p-id="12397" xmlns:xlink="http://www.w3.org/1999/xlink" width="200" height="200"><path d="M512 890.432c18.432 0 33.408 14.976 33.408 33.408v66.752a33.408 33.408 0 0 1-66.816 0v-66.752c0-18.432 14.976-33.408 33.408-33.408z m-267.52-110.848a33.408 33.408 0 0 1 0 47.232l-47.296 47.232a33.408 33.408 0 0 1-47.232-47.232l47.232-47.232a33.408 33.408 0 0 1 47.232 0z m582.336 0l47.232 47.232a33.408 33.408 0 0 1-47.232 47.232l-47.232-47.232a33.408 33.408 0 1 1 47.232-47.232zM512 200.32a311.68 311.68 0 1 1 0 623.296 311.68 311.68 0 0 1 0-623.36z m0 66.752a244.864 244.864 0 1 0 0 489.728 244.864 244.864 0 0 0 0-489.728zM100.16 478.592a33.408 33.408 0 1 1 0 66.816H33.408a33.408 33.408 0 0 1 0-66.816h66.752z m890.432 0a33.408 33.408 0 0 1 0 66.816h-66.752a33.408 33.408 0 1 1 0-66.816h66.752zM197.184 149.952l47.232 47.232a33.408 33.408 0 1 1-47.232 47.232l-47.232-47.232a33.408 33.408 0 0 1 47.232-47.232z m676.864 0a33.408 33.408 0 0 1 0 47.232l-47.232 47.232a33.408 33.408 0 1 1-47.232-47.232l47.232-47.232a33.408 33.408 0 0 1 47.232 0zM512 0c18.432 0 33.408 14.976 33.408 33.408v66.752a33.408 33.408 0 1 1-66.816 0V33.408C478.592 14.976 493.568 0 512 0z" p-id="12398"></path></svg>